<?xml version="1.0" standalone="no"?>
<!DOCTYPE svg PUBLIC "-//W3C//DTD SVG 20010904//EN"
 "http://www.w3.org/TR/2001/REC-SVG-20010904/DTD/svg10.dtd">
<svg version="1.0" xmlns="http://www.w3.org/2000/svg"
 width="1964.000000pt" height="1984.000000pt" viewBox="0 0 1964.000000 1984.000000"
 preserveAspectRatio="xMidYMid meet">

<g transform="translate(0.000000,1984.000000) scale(0.100000,-0.100000)"
fill="#FFFFFF" stroke="none">
<path d="M9539 19656 c-4 -4 -137 -11 -295 -16 -358 -11 -597 -38 -1119 -126
-400 -67 -626 -120 -1026 -238 -477 -141 -856 -278 -1154 -416 -428 -199 -544
-258 -895 -458 -269 -154 -564 -351 -790 -528 -63 -49 -137 -105 -165 -124
-27 -18 -104 -79 -170 -134 -66 -55 -145 -121 -175 -146 -30 -25 -118 -104
-195 -176 -77 -71 -203 -188 -280 -259 -191 -176 -328 -316 -460 -470 -62 -71
-120 -137 -130 -145 -38 -32 -200 -223 -474 -560 -222 -274 -723 -1032 -846
-1280 -17 -36 -70 -139 -118 -230 -47 -91 -122 -246 -167 -345 -45 -99 -86
-184 -90 -190 -4 -5 -55 -128 -113 -271 -250 -619 -423 -1183 -532 -1734 -20
-102 -40 -201 -45 -221 -15 -56 -67 -485 -85 -694 -8 -104 -20 -242 -26 -305
-17 -181 -23 -762 -10 -975 24 -417 32 -519 57 -740 42 -383 155 -1027 235
-1350 117 -464 322 -1080 476 -1425 128 -286 490 -1013 577 -1159 19 -31 69
-114 111 -186 413 -690 996 -1395 1635 -1974 63 -57 138 -125 165 -151 252
-233 656 -558 925 -743 654 -450 1550 -905 2305 -1169 526 -184 1339 -397
1847 -482 202 -35 542 -83 668 -96 283 -29 1207 -20 1550 15 396 40 464 47
590 66 786 118 1587 386 2550 856 590 287 1237 665 1500 875 19 15 125 99 235
186 321 253 560 467 865 772 382 382 622 646 930 1024 75 92 185 240 304 411
372 532 816 1385 1048 2015 28 74 68 182 90 240 232 604 395 1306 488 2095 64
547 65 575 65 1245 0 659 -3 728 -55 1150 -64 511 -182 1057 -332 1530 -16 52
-41 133 -55 180 -33 115 -224 675 -282 830 -26 69 -62 166 -81 215 -72 195
-164 403 -256 577 -215 407 -277 513 -552 943 -71 112 -251 361 -343 476 -46
58 -122 155 -169 214 -215 275 -641 731 -890 954 -47 42 -155 141 -240 221
-86 80 -189 173 -230 207 -705 583 -1010 808 -1340 988 -69 38 -179 100 -245
138 -289 167 -665 334 -1065 474 -400 140 -534 183 -655 213 -66 16 -210 54
-320 85 -229 64 -626 150 -890 194 -334 55 -389 62 -505 72 -63 5 -141 14
-172 19 -107 20 -1165 51 -1179 36z m1201 -1055 c30 -5 102 -17 160 -26 139
-21 402 -69 575 -105 177 -37 496 -118 770 -196 372 -107 574 -173 715 -234
25 -10 151 -62 280 -115 129 -53 357 -157 505 -230 268 -133 300 -150 465
-248 47 -27 105 -61 130 -75 147 -81 395 -259 690 -495 236 -189 287 -233 484
-412 215 -195 449 -430 611 -615 186 -212 526 -634 555 -690 7 -14 38 -61 69
-104 31 -43 67 -98 81 -122 14 -24 55 -88 92 -142 135 -202 442 -776 618
-1157 43 -93 97 -210 120 -260 173 -369 317 -771 375 -1046 14 -68 48 -220 75
-339 293 -1280 354 -2286 204 -3340 -56 -392 -107 -635 -214 -1030 -202 -740
-485 -1443 -818 -2033 -411 -726 -885 -1366 -1402 -1891 -244 -247 -291 -293
-435 -421 -445 -395 -824 -672 -1365 -997 -316 -190 -721 -382 -1035 -491
l-100 -35 -1 137 c0 126 -3 143 -32 230 -136 396 -384 603 -817 682 -144 26
-239 22 -393 -16 -373 -91 -649 -421 -695 -832 -13 -122 0 -275 33 -375 24
-70 107 -245 140 -295 l21 -31 -28 -6 c-42 -9 -399 -64 -558 -87 -443 -62
-1040 -65 -1483 -8 -344 44 -812 124 -812 139 0 4 20 42 45 86 53 92 95 196
127 315 19 71 23 107 22 229 -1 175 -23 262 -109 435 -95 192 -200 306 -355
385 -99 50 -186 76 -355 105 -225 40 -326 33 -489 -35 -147 -62 -330 -207
-420 -334 -107 -150 -184 -363 -202 -555 l-7 -68 32 -11 c24 -8 31 -17 31 -36
l0 -25 -77 28 c-203 76 -614 273 -903 433 -797 443 -1458 983 -2138 1748 -571
642 -1111 1417 -1473 2115 -141 273 -269 592 -417 1045 -215 653 -336 1197
-411 1840 -40 343 -53 1252 -21 1530 95 832 283 1634 550 2345 166 439 322
782 578 1270 226 430 492 862 704 1145 181 242 205 271 522 630 100 113 585
587 706 691 678 577 1322 969 2145 1304 424 172 984 357 1350 445 50 12 142
34 205 50 120 29 387 79 695 129 99 16 234 39 300 51 66 12 179 26 250 30 178
11 1466 4 1535 -9z"/>
<path d="M8225 16740 c-143 -11 -268 -34 -509 -90 -494 -117 -704 -190 -1021
-354 -431 -224 -683 -426 -1038 -833 -131 -150 -187 -235 -235 -351 -71 -173
-90 -250 -122 -507 -20 -157 -26 -175 -61 -175 -42 0 -181 -44 -263 -83 -145
-69 -251 -144 -391 -277 -176 -167 -229 -227 -323 -368 -146 -218 -191 -347
-214 -609 -28 -317 -10 -553 59 -793 29 -103 171 -383 251 -494 161 -226 367
-382 607 -459 118 -38 165 -45 445 -67 521 -41 593 -39 713 21 81 41 139 98
175 172 37 75 67 213 58 269 -22 137 -176 280 -323 299 -106 13 -302 10 -443
-7 -150 -18 -223 -11 -341 33 -214 79 -353 235 -426 478 -25 83 -27 104 -27
275 -1 197 8 271 50 403 33 108 39 118 145 237 110 124 188 191 261 225 166
76 342 70 524 -15 116 -56 182 -115 277 -249 210 -297 357 -368 587 -282 125
47 191 114 227 230 22 71 22 189 0 261 -34 114 -155 278 -352 476 -105 107
-147 134 -269 174 -39 13 -80 33 -92 45 -13 13 -36 66 -54 126 -29 93 -32 113
-27 186 11 158 79 311 215 482 118 149 371 377 508 457 65 38 440 174 480 174
12 0 14 -37 14 -208 0 -176 4 -231 25 -353 29 -171 41 -215 98 -345 74 -170
165 -283 459 -570 160 -156 170 -163 279 -217 233 -116 390 -114 546 4 64 48
104 105 144 206 29 70 31 84 25 148 -14 148 -80 218 -315 332 -155 76 -157 77
-267 187 -102 102 -116 120 -162 216 -79 164 -82 181 -82 538 l0 309 46 7 c86
11 238 6 409 -14 288 -35 390 -65 527 -157 91 -61 214 -176 278 -261 61 -80
134 -224 156 -307 25 -93 33 -396 34 -1285 0 -443 6 -917 12 -1055 5 -137 13
-905 17 -1705 l6 -1455 378 -3 378 -2 -5 2617 c-3 1791 -8 2637 -15 2679 -25
140 -103 494 -123 554 -28 88 -73 176 -159 311 -97 154 -148 216 -288 352
-172 165 -262 217 -558 323 -320 113 -645 165 -908 144z"/>
<path d="M12022 16405 c-203 -31 -305 -68 -441 -159 -165 -112 -234 -195 -395
-478 -118 -206 -154 -357 -143 -607 11 -254 92 -439 312 -712 33 -41 93 -107
135 -147 69 -67 101 -90 247 -181 46 -29 53 -37 58 -74 4 -23 5 -267 3 -542
-4 -448 -6 -507 -22 -565 -29 -102 -118 -264 -152 -277 -8 -3 -14 -10 -14 -17
0 -6 -8 -27 -18 -46 -62 -116 -119 -225 -155 -295 -22 -44 -50 -96 -62 -115
-35 -58 -102 -241 -135 -367 -17 -65 -42 -156 -55 -203 -56 -185 -58 -221 -63
-830 -2 -311 -1 -678 3 -816 l7 -252 379 3 c209 1 382 5 384 7 3 3 0 319 -6
703 -13 767 -9 890 37 1071 32 124 92 278 164 415 347 663 409 794 469 980 94
292 103 372 95 841 l-7 363 75 38 c41 20 78 37 82 37 18 0 145 91 183 131 109
115 188 251 249 433 19 55 46 117 60 137 47 68 56 113 61 284 5 155 4 163 -26
269 -17 60 -48 138 -69 175 -37 64 -122 250 -122 266 0 16 -110 152 -160 199
-118 111 -449 293 -580 319 -114 23 -271 28 -378 12z m285 -777 c99 -25 201
-107 245 -198 33 -68 38 -225 9 -318 -33 -111 -140 -235 -248 -291 -48 -24
-159 -29 -223 -10 -90 27 -190 134 -229 243 -29 82 -32 216 -8 298 35 116 137
231 239 270 51 20 151 23 215 6z"/>
<path d="M14703 14186 c-143 -27 -268 -79 -393 -161 -99 -66 -375 -357 -417
-440 -69 -135 -105 -395 -84 -599 18 -168 43 -255 102 -360 56 -97 204 -320
246 -370 35 -42 45 -73 44 -136 -2 -64 -29 -114 -128 -241 -35 -43 -63 -83
-63 -88 0 -15 -33 -69 -155 -256 -129 -198 -147 -226 -176 -280 -12 -22 -25
-42 -28 -45 -17 -13 -197 -341 -237 -432 -100 -228 -126 -394 -122 -778 l3
-285 360 3 c198 2 375 6 394 9 l33 6 -7 191 c-19 529 -12 600 66 746 41 76
191 288 325 460 114 146 204 273 323 457 60 92 120 180 133 195 21 24 39 29
183 53 88 15 196 38 240 52 282 89 488 268 619 538 84 173 138 347 161 526 20
150 19 218 -5 335 -37 180 -87 299 -180 422 -93 125 -231 238 -373 306 -121
59 -312 133 -406 158 -99 26 -352 34 -458 14z m386 -748 c86 -28 120 -49 168
-106 87 -103 117 -200 111 -354 l-4 -108 -45 -57 c-80 -103 -171 -145 -313
-145 -67 0 -96 5 -164 32 -136 52 -220 134 -262 255 -44 126 -36 248 23 346
54 90 140 140 277 162 45 8 144 -4 209 -25z"/>
<path d="M8042 13025 c-81 -18 -159 -47 -247 -93 -81 -43 -216 -170 -260 -245
-37 -64 -63 -167 -75 -300 -26 -274 55 -480 263 -673 l72 -66 0 -929 0 -929
383 0 382 1 0 961 0 961 39 51 c152 197 199 335 208 611 l5 170 -51 101 c-40
81 -64 114 -113 159 -103 95 -159 136 -236 172 -129 60 -245 75 -370 48z"/>
<path d="M2885 10750 c-150 -30 -307 -147 -369 -274 -22 -45 -30 -79 -34 -141
-9 -144 34 -262 126 -351 134 -130 279 -153 938 -154 438 0 499 -7 630 -72
168 -84 261 -181 372 -391 86 -162 111 -230 208 -572 155 -550 166 -587 270
-980 108 -408 158 -587 224 -800 139 -452 424 -1483 580 -2102 100 -398 235
-689 445 -958 256 -329 768 -613 1270 -705 252 -47 364 -48 3025 -48 2702 1
2536 -2 2658 55 70 32 187 147 221 216 51 106 62 199 36 302 -31 119 -113 219
-232 283 -128 68 106 63 -2878 61 l-2700 -1 -70 22 c-132 41 -271 124 -392
234 -47 43 -290 355 -335 432 l-20 34 2414 0 c1637 0 2582 -4 2938 -13 289 -6
611 -12 715 -12 180 0 196 2 317 32 148 38 227 69 318 125 333 208 609 572
787 1038 33 88 259 752 513 1505 114 341 240 709 279 817 101 281 99 269 78
393 -32 188 -69 268 -167 359 -66 60 -160 113 -249 140 -50 15 -428 16 -4345
16 -3662 0 -4314 2 -4448 15 -225 20 -224 20 -290 112 -31 43 -120 184 -198
313 -212 352 -298 467 -461 626 -180 173 -425 309 -678 376 -110 29 -130 31
-391 39 -151 4 -430 15 -620 23 -378 17 -426 18 -485 6z"/>
</g>
</svg>
